<svg width="72" height="72" viewBox="0 0 72 72" fill="none" xmlns="http://www.w3.org/2000/svg">
<path d="M34.521 47.9551L39.8865 33.6196M44.85 52.2646C44.85 53.5396 44.213 54.1766 42.939 54.1756H40.071C38.585 54.1756 37.6295 54.8186 37.2045 56.1046C36.7805 54.8186 35.8245 54.1756 34.3365 54.1756H31.455C30.18 54.1756 29.5425 53.5386 29.5425 52.2646M31.4535 36.9556L23.808 39.8236L31.368 42.7066M42.939 36.9556L50.601 39.8236L42.939 42.7066" stroke="white" stroke-width="0.5" stroke-linecap="round" stroke-linejoin="round"/>
<path d="M18.0555 29.2935C27.63 33.1335 35.292 31.221 42.939 25.47C42.939 28.02 42.3015 29.937 41.0265 31.221C46.779 33.132 50.601 27.381 55.3815 27.381C56.6545 27.381 58.2525 28.0185 60.1755 29.2935C60.8125 26.7435 60.17 24.832 58.248 23.559C58.248 21.009 59.528 19.0975 62.088 17.8245C59.528 16.5395 56.973 17.1765 54.423 19.7355C54.423 15.8955 50.601 12.0735 46.779 10.161C48.053 11.436 48.69 13.3475 48.69 15.8955C41.025 8.25004 35.2935 8.25004 27.63 8.25004C29.541 9.52404 30.8155 10.7985 31.4535 12.0735C23.8065 12.0735 18.0555 15.8955 10.4085 8.24854C8.49898 19.7355 12.321 25.47 18.0555 29.2935ZM18.0555 29.2935V38.8665C18.0555 41.4265 16.7815 42.7065 14.2335 42.7065C16.7815 42.7065 18.0555 43.981 18.0555 46.53V59.9265C18.0555 62.4765 19.9725 63.751 23.8065 63.75" stroke="white" stroke-width="0.5" stroke-linecap="round" stroke-linejoin="round"/>
<path d="M50.601 63.7501C53.151 63.7501 54.4255 62.4756 54.4245 59.9266V46.5301C54.4245 43.9801 55.6985 42.7056 58.2465 42.7066C55.6985 42.7066 54.4245 41.4266 54.4245 38.8666V27.7666" stroke="white" stroke-width="0.5" stroke-linecap="round" stroke-linejoin="round"/>
</svg>
