<svg width="48" height="48" viewBox="0 0 48 48" fill="none" xmlns="http://www.w3.org/2000/svg">
<path d="M23.014 31.9701L26.591 22.4131M29.9 34.8431C29.9 35.6931 29.4753 36.1178 28.626 36.1171H26.714C25.7233 36.1171 25.0863 36.5458 24.803 37.4031C24.5203 36.5458 23.883 36.1171 22.891 36.1171H20.97C20.12 36.1171 19.695 35.6924 19.695 34.8431M20.969 24.6371L15.872 26.5491L20.912 28.4711M28.626 24.6371L33.734 26.5491L28.626 28.4711" stroke="white" stroke-width="0.5" stroke-linecap="round" stroke-linejoin="round"/>
<path d="M12.037 19.529C18.42 22.089 23.528 20.814 28.626 16.98C28.626 18.68 28.201 19.958 27.351 20.814C31.186 22.088 33.734 18.254 36.921 18.254C37.7697 18.254 38.835 18.679 40.117 19.529C40.5417 17.829 40.1133 16.5547 38.832 15.706C38.832 14.006 39.6853 12.7317 41.392 11.883C39.6853 11.0264 37.982 11.451 36.282 13.157C36.282 10.597 33.734 8.04902 31.186 6.77402C32.0353 7.62402 32.46 8.89836 32.46 10.597C27.35 5.50002 23.529 5.50002 18.42 5.50002C19.694 6.34936 20.5437 7.19902 20.969 8.04902C15.871 8.04902 12.037 10.597 6.93899 5.49902C5.66599 13.157 8.21399 16.98 12.037 19.529ZM12.037 19.529V25.911C12.037 27.6177 11.1877 28.471 9.48899 28.471C11.1877 28.471 12.037 29.3207 12.037 31.02V39.951C12.037 41.651 13.315 42.5007 15.871 42.5" stroke="white" stroke-width="0.5" stroke-linecap="round" stroke-linejoin="round"/>
<path d="M33.734 42.5002C35.434 42.5002 36.2837 41.6506 36.283 39.9512V31.0202C36.283 29.3202 37.1323 28.4706 38.831 28.4712C37.1323 28.4712 36.283 27.6179 36.283 25.9112V18.5112" stroke="white" stroke-width="0.5" stroke-linecap="round" stroke-linejoin="round"/>
</svg>
